<?xml version="1.0" standalone="no"?>
<!DOCTYPE svg PUBLIC "-//W3C//DTD SVG 20010904//EN"
 "http://www.w3.org/TR/2001/REC-SVG-20010904/DTD/svg10.dtd">
<svg version="1.0" xmlns="http://www.w3.org/2000/svg"
 width="225.000000pt" height="225.000000pt" viewBox="0 0 225.000000 225.000000"
 preserveAspectRatio="xMidYMid meet">
<metadata>
Created by potrace 1.14, written by Peter Selinger 2001-2017
</metadata>
<g transform="translate(0.000000,225.000000) scale(0.100000,-0.100000)"
fill="#000000" stroke="none">
<path d="M1023 2236 c-94 -31 -178 -110 -212 -200 l-19 -51 -238 -5 c-260 -6
-288 -12 -347 -68 -119 -112 -83 -314 65 -376 33 -14 138 -16 850 -16 766 0
815 1 853 19 172 78 181 312 15 405 l-55 31 -243 5 -244 5 -20 52 c-25 69 -96
145 -164 179 -67 33 -175 42 -241 20z m195 -127 c42 -21 102 -88 102 -116 0
-10 -40 -13 -205 -13 l-205 0 19 38 c38 74 99 111 185 112 41 0 73 -7 104 -21z
m741 -280 c54 -54 37 -150 -33 -183 -31 -14 -112 -16 -806 -16 -552 0 -778 3
-793 11 -87 45 -101 143 -29 199 24 20 44 20 828 20 l802 0 31 -31z"/>
<path d="M350 1390 c-20 -20 -21 -29 -18 -578 l3 -557 33 -67 c39 -81 102
-139 179 -168 54 -20 71 -21 587 -18 528 3 531 3 577 26 74 36 125 87 161 160
l33 67 3 557 c3 549 2 558 -18 578 -24 24 -49 26 -76 6 -18 -14 -19 -35 -24
-573 -4 -398 -8 -566 -17 -584 -6 -15 -28 -43 -49 -63 -68 -66 -81 -67 -626
-64 l-484 3 -48 25 c-28 15 -61 43 -80 68 l-31 44 -5 565 c-5 544 -6 565 -24
579 -27 20 -52 18 -76 -6z"/>
<path d="M692 1314 l-22 -15 0 -499 0 -500 26 -17 c24 -15 29 -15 53 -2 l26
15 3 498 c2 454 1 501 -14 518 -21 22 -42 23 -72 2z"/>
<path d="M1080 1310 c-19 -19 -20 -33 -20 -508 0 -518 0 -512 47 -527 17 -4
29 1 48 19 l25 25 0 486 c0 472 -1 486 -20 505 -11 11 -29 20 -40 20 -11 0
-29 -9 -40 -20z"/>
<path d="M1476 1314 c-14 -14 -16 -74 -16 -514 l0 -499 22 -15 c30 -21 44 -20
68 4 19 19 20 33 20 514 l0 495 -22 15 c-29 20 -52 20 -72 0z"/>
</g>
</svg>
